<?xml version="1.0" standalone="no"?>
<!DOCTYPE svg PUBLIC "-//W3C//DTD SVG 1.1//EN" "http://www.w3.org/Graphics/SVG/1.1/DTD/svg11.dtd" >
<svg xmlns="http://www.w3.org/2000/svg" xmlns:xlink="http://www.w3.org/1999/xlink" version="1.1">
<metadata>
Created by FontForge 20170924 at Mon Jan 11 00:43:49 2021
 By www
Copyright Motherfan 2018
</metadata>
<defs>
<font id="Modern-Tetris" horiz-adv-x="1792" >
  <font-face 
    font-family="Modern Tetris"
    font-weight="400"
    font-stretch="normal"
    units-per-em="2048"
    panose-1="0 0 4 0 0 0 0 0 0 0"
    ascent="2048"
    descent="0"
    x-height="2048"
    cap-height="2816"
    bbox="0 -256 2816 3072"
    underline-thickness="102"
    underline-position="153"
    unicode-range="U+0020-201D"
  />
    <missing-glyph />
    <glyph glyph-name="space" unicode=" " horiz-adv-x="768" 
 />
    <glyph glyph-name="exclam" unicode="!" horiz-adv-x="768" 
d="M0 0v512h512v-512h-512zM0 768v2048h512v-2048h-512z" />
    <glyph glyph-name="quotedbl" unicode="&#x22;" horiz-adv-x="1024" 
d="M0 2048v768h256v-768h-256zM512 2048v768h256v-768h-256z" />
    <glyph glyph-name="quotesingle" unicode="'" horiz-adv-x="512" 
d="M0 2048v768h256v-768h-256z" />
    <glyph glyph-name="comma" unicode="," horiz-adv-x="768" 
d="M128 -256l128 256h-256v512h512v-512l-128 -256h-256z" />
    <glyph glyph-name="period" unicode="." horiz-adv-x="768" 
d="M0 0v512h512v-512h-512z" />
    <glyph glyph-name="zero" unicode="0" horiz-adv-x="2048" 
d="M1280 512v1792h-768v-1792h768zM256 0l-256 512v1792l256 512h1280l256 -512v-1792l-256 -512h-1280z" />
    <glyph glyph-name="one" unicode="1" horiz-adv-x="1024" 
d="M256 0v2304h-256l256 512h512v-2816h-512z" />
    <glyph glyph-name="two" unicode="2" horiz-adv-x="2048" 
d="M0 0l1152 2304h-1152l256 512h1280l256 -512l-896 -1792h896l-256 -512h-1536z" />
    <glyph glyph-name="three" unicode="3" horiz-adv-x="2048" 
d="M0 0v512h1024l-512 1024l384 768h-896v512h1664l-640 -1280l768 -1536h-1792z" />
    <glyph glyph-name="four" unicode="4" horiz-adv-x="2048" 
d="M1024 0v1024h-1024v1792h512v-1280h512v1280h512v-1280h256v-512h-256v-1024h-512z" />
    <glyph glyph-name="five" unicode="5" 
d="M256 0l-256 512h896l-896 1792v512h1536v-512h-896l896 -1792l-256 -512h-1024z" />
    <glyph glyph-name="six" unicode="6" 
d="M1024 512v256l-512 512v-768h512zM0 0v2816h1536v-512h-1024v-256l1024 -1024v-1024h-1536z" />
    <glyph glyph-name="seven" unicode="7" horiz-adv-x="2304" 
d="M0 0l1152 2304h-1152v512h2048l-1408 -2816h-640z" />
    <glyph glyph-name="eight" unicode="8" 
d="M1024 512v256l-256 256l-256 -256v-256h512zM768 1792l256 256v256h-512v-256l256 -256v0zM0 0v1024l256 256h1l127 128l-384 384v1024h1536v-1024l-256 -256h-2l-126 -128l384 -384v-1024h-1536z" />
    <glyph glyph-name="nine" unicode="9" 
d="M1024 1536v768h-512v-256l512 -512v0zM0 0v512h1024v256l-1024 1024v1024h1536v-2816h-1536z" />
    <glyph glyph-name="colon" unicode=":" horiz-adv-x="768" 
d="M0 256v512h512v-512h-512zM0 2048v512h512v-512h-512z" />
    <glyph glyph-name="semicolon" unicode=";" horiz-adv-x="768" 
d="M128 0l128 256h-256v512h512v-512l-128 -256h-256zM0 2048v512h512v-512h-512z" />
    <glyph glyph-name="question" unicode="?" horiz-adv-x="2048" 
d="M512 0v512h512v-512h-512zM512 768l768 1536h-1280l256 512h1280l256 -512l-768 -1536h-512z" />
    <glyph glyph-name="A" unicode="A" horiz-adv-x="3072" 
d="M1664 1024l-256 512l-256 -512h512zM0 0l1408 2816l1408 -2816h-640l-256 512h-1024l-256 -512h-640z" />
    <glyph glyph-name="B" unicode="B" horiz-adv-x="2176" 
d="M1152 512l-512 1024l384 768h-512v-1792h640zM0 0v2816h1792l-640 -1280l768 -1536h-1920z" />
    <glyph glyph-name="C" unicode="C" horiz-adv-x="2048" 
d="M0 0v2816h1792l-256 -512h-1024v-1792h1024l256 -512h-1792z" />
    <glyph glyph-name="D" unicode="D" horiz-adv-x="2304" 
d="M512 512l896 1792h-896v-1792v0zM0 0v2816h2048l-1408 -2816h-640z" />
    <glyph glyph-name="E" unicode="E" horiz-adv-x="2304" 
d="M0 0v2816h1664l-256 -512h-896v-512h896l-256 -512h-640v-768h1280l256 -512h-2048z" />
    <glyph glyph-name="F" unicode="F" horiz-adv-x="1920" 
d="M0 0v2816h1664l-256 -512h-896v-512h896l-256 -512h-640v-1280h-512z" />
    <glyph glyph-name="G" unicode="G" horiz-adv-x="2048" 
d="M0 0v2816h1792l-256 -512h-1024v-1792h768v768h-256l-256 512h1024v-1792h-1792z" />
    <glyph glyph-name="H" unicode="H" horiz-adv-x="2048" 
d="M0 0v2816h512v-1024h768v1024h512v-2816h-512v1280h-768v-1280h-512z" />
    <glyph glyph-name="I" unicode="I" horiz-adv-x="768" 
d="M0 0v2048h512v-2048h-512zM0 2304v512h512v-512h-512z" />
    <glyph glyph-name="J" unicode="J" 
d="M256 0l-256 512v768l512 -256v-512h512v2304h512v-2304l-256 -512h-1024z" />
    <glyph glyph-name="K" unicode="K" horiz-adv-x="2048" 
d="M0 0v2816h512v-2816h-512zM1280 0l-768 1536l640 1280h384l-640 -1280h128l768 -1536h-512z" />
    <glyph glyph-name="L" unicode="L" horiz-adv-x="2048" 
d="M0 0v2816h512v-2304h1024l256 -512h-1792z" />
    <glyph glyph-name="M" unicode="M" horiz-adv-x="2304" 
d="M0 0v2816l1024 -2048l1024 2048v-2816h-512v1024l-512 -1024l-512 1024v-1024h-512z" />
    <glyph glyph-name="N" unicode="N" horiz-adv-x="2304" 
d="M0 0v2816l1536 -1536v1536h512v-2816l-1536 1536v-1536h-512z" />
    <glyph glyph-name="O" unicode="O" horiz-adv-x="2048" 
d="M1280 512v1792h-768v-1792h768zM0 0v2816h1792v-2816h-1792z" />
    <glyph glyph-name="P" unicode="P" horiz-adv-x="1920" 
d="M640 1536l384 768h-512v-768h128zM0 0v2816h1664l-896 -1792h-256v-1024h-512z" />
    <glyph glyph-name="Q" unicode="Q" horiz-adv-x="2304" 
d="M1280 512l-256 512h256v1280h-768v-1792h768zM0 0v2816h1792v-2304l256 -512h-2048z" />
    <glyph glyph-name="R" unicode="R" horiz-adv-x="2432" 
d="M0 0v2816h1536l-512 -1024h256l896 -1792h-512l-896 1792l384 768h-640v-2560h-512z" />
    <glyph glyph-name="S" unicode="S" horiz-adv-x="1920" 
d="M0 0v512h896l-896 1792v512h1664l-256 -512h-768l896 -1792v-512h-1536z" />
    <glyph glyph-name="T" unicode="T" 
d="M512 0v2304h-512v512h1536v-512h-512v-2304h-512z" />
    <glyph glyph-name="U" unicode="U" horiz-adv-x="2048" 
d="M512 0l-512 512v2304h512v-2304h768v2304h512v-2304l-512 -512h-768z" />
    <glyph glyph-name="V" unicode="V" horiz-adv-x="2304" 
d="M1024 0l-1024 2048v768h512v-768l512 -1024l512 1024v768h512v-768l-1024 -2048v0z" />
    <glyph glyph-name="W" unicode="W" horiz-adv-x="2816" 
d="M768 0l-768 1536v1280h512v-1280l256 -512l512 1024l512 -1024l256 512v1280h512v-1280l-768 -1536l-512 1024l-512 -1024v0z" />
    <glyph glyph-name="X" unicode="X" horiz-adv-x="2176" 
d="M0 0l704 1408l-704 1408h512l448 -896l448 896h512l-704 -1408l704 -1408h-512l-448 896l-448 -896h-512z" />
    <glyph glyph-name="Y" unicode="Y" horiz-adv-x="2304" 
d="M768 0v1280l-768 1536h512l512 -1024l512 1024h512l-768 -1536v-1280h-512z" />
    <glyph glyph-name="Z" unicode="Z" horiz-adv-x="2304" 
d="M0 0l1152 2304h-896l-256 512h2048l-1152 -2304h896l256 -512h-2048z" />
    <glyph glyph-name="a" unicode="a" horiz-adv-x="2304" 
d="M1216 640l-192 384l-192 -384h384zM0 0l1024 2048l1024 -2048h-512l-128 256h-768l-128 -256h-512z" />
    <glyph glyph-name="b" unicode="b" 
d="M896 512l-256 512l256 512h-384v-1024h384zM0 0v2048h1536l-512 -1024l512 -1024h-1536z" />
    <glyph glyph-name="c" unicode="c" 
d="M0 0v2048h1536l-256 -512h-768v-1024h768l256 -512h-1536z" />
    <glyph glyph-name="d" unicode="d" 
d="M512 768l384 768h-384v-768v0zM0 0v2048h1536l-1024 -2048h-512z" />
    <glyph glyph-name="e" unicode="e" horiz-adv-x="1920" 
d="M0 0v2048h1408l-256 -512h-640v-256h640l-256 -512h-384v-256h896l256 -512h-1664z" />
    <glyph glyph-name="f" unicode="f" horiz-adv-x="1664" 
d="M0 0v2048h1408l-256 -512h-640v-256h640l-256 -512h-384v-768h-512z" />
    <glyph glyph-name="g" unicode="g" 
d="M0 0v2048h1536l-256 -512h-768v-1024h512v256l-256 512h768v-1280h-1536z" />
    <glyph glyph-name="h" unicode="h" 
d="M0 0v2048h512v-768h512v768h512v-2048h-512v768h-512v-768h-512z" />
    <glyph glyph-name="i" unicode="i" horiz-adv-x="768" 
d="M0 0v1280h512v-1280h-512zM0 1536v512h512v-512h-512z" />
    <glyph glyph-name="j" unicode="j" horiz-adv-x="1536" 
d="M256 0l-256 512v512l512 -256v-256h256v1536h512v-1536l-256 -512h-768z" />
    <glyph glyph-name="k" unicode="k" 
d="M0 0v2048h512v-2048h-512zM1024 0l-512 1024l512 1024h384l-512 -1024h128l512 -1024h-512z" />
    <glyph glyph-name="l" unicode="l" 
d="M0 0v2048h512v-1536h768l256 -512h-1536z" />
    <glyph glyph-name="m" unicode="m" 
d="M0 0v2048l768 -1536l768 1536v-2048h-512v512l-256 -512l-256 512v-512h-512z" />
    <glyph glyph-name="n" unicode="n" 
d="M0 0v2048l1024 -1024v1024h512v-2048l-1024 1024v-1024h-512z" />
    <glyph glyph-name="o" unicode="o" 
d="M1024 512v1024h-512v-1024h512zM0 0v2048h1536v-2048h-1536z" />
    <glyph glyph-name="p" unicode="p" 
d="M640 1024l256 512h-384v-512h128zM0 0v2048h1536l-768 -1536h-256v-512h-512z" />
    <glyph glyph-name="q" unicode="q" horiz-adv-x="2048" 
d="M1024 512l-128 256h128v768h-512v-1024h512zM0 0v2048h1536v-1792l128 -256h-1664z" />
    <glyph glyph-name="r" unicode="r" horiz-adv-x="2048" 
d="M0 0v2048h1536l-512 -1024h256l512 -1024h-512l-512 1024l384 768h-640v-1792h-512z" />
    <glyph glyph-name="s" unicode="s" horiz-adv-x="1664" 
d="M0 0v512h512l-512 1024v512h1408l-256 -512h-384l512 -1024v-512h-1280z" />
    <glyph glyph-name="t" unicode="t" 
d="M512 0v1536h-512v512h1536v-512h-512v-1536h-512z" />
    <glyph glyph-name="u" unicode="u" 
d="M512 0l-512 512v1536h512v-1536h512v1536h512v-1536l-512 -512h-512z" />
    <glyph glyph-name="v" unicode="v" 
d="M768 0l-768 1536v512h512v-512l256 -512l256 512v512h512v-512l-768 -1536v0z" />
    <glyph glyph-name="w" unicode="w" horiz-adv-x="2816" 
d="M768 0l-768 1536v512h512v-512l256 -512l512 1024l512 -1024l256 512v512h512v-512l-768 -1536l-512 1024l-512 -1024v0z" />
    <glyph glyph-name="x" unicode="x" 
d="M0 0l512 1024l-512 1024h512l256 -512l256 512h512l-512 -1024l512 -1024h-512l-256 512l-256 -512h-512z" />
    <glyph glyph-name="y" unicode="y" horiz-adv-x="2048" 
d="M640 0v768l-640 1280h512l384 -768l384 768h512l-640 -1280v-768h-512z" />
    <glyph glyph-name="z" unicode="z" horiz-adv-x="2048" 
d="M0 0l768 1536h-512l-256 512h1664l-768 -1536h640l256 -512h-1792z" />
    <glyph glyph-name="quoteleft" unicode="&#x2018;" horiz-adv-x="768" 
d="M0 2304v512l128 256h256l-128 -256h256v-512h-512z" />
    <glyph glyph-name="quoteright" unicode="&#x2019;" horiz-adv-x="768" 
d="M128 2048l128 256h-256v512h512v-512l-128 -256h-256z" />
    <glyph glyph-name="quotedblleft" unicode="&#x201c;" horiz-adv-x="1280" 
d="M0 2304v512l128 256h256l-128 -256h256l128 256h256l-128 -256h256v-512h-1024z" />
    <glyph glyph-name="quotedblright" unicode="&#x201d;" horiz-adv-x="1280" 
d="M128 2048l128 256h-256v512h1024v-512l-128 -256h-256l128 256h-256l-128 -256h-256z" />
  </font>
</defs>
</svg>
